<svg id="Слой_1" data-name="Слой 1" xmlns="http://www.w3.org/2000/svg" viewBox="0 0 1536 1184.37"><path d="M265.26.79c-1.52,1-1.39,2.27.88,8.71,6.7,18.19,1.9,52.67-13.13,95-3,8.84-3.29,11-3.41,31,0,16.67.5,23.24,2.14,29,2.4,8.59,6.57,16.92,9.48,19.2,3.41,2.65,9.47,1.76,15.78-2.15,7.33-4.68,11-8.34,25.64-25.26s21.6-24.13,32.59-33.47c14.27-12,20.71-18.57,25-25.26,3.53-5.43,4-7.33,4-14.53-.13-7-.76-9.6-4.93-17.68-13.64-26.9-29.68-44.08-51.28-54.94C294.31,3.44,269.55-2.12,265.26.79Z"/><path d="M215.87,6.09c-2.4.63-7.83,1.64-12,2.4s-12.37,2.4-18.31,3.79-13.64,3-17.3,3.66c-10,1.9-19.83,7.08-25.64,13.65A89,89,0,0,0,126.2,57.75c-3.54,9.85-7.58,15.66-12.89,18.44-2.14,1.14-18.18,5.68-35.61,10.11C35.26,97,38.29,95.89,38.8,99.56c1.76,15.41,1.76,18.56-.76,24.25a51.53,51.53,0,0,1-7.71,11.36c-3.15,3.42-4.92,6.32-4.54,7.46,1,2.65,16.79,10.1,31.57,14.9,11.75,3.79,28.93,6.44,47.87,7.2,19.33.76,20.21.88,23.75,4,6.44,5.81,6.19,18.57-.64,22.86S92,195.42,66.83,190.24c-18.94-3.91-21.47-4.16-21.47-2.52,0,3.91,20.09,18.06,33.73,23.87,8.71,3.79,22.6,6.69,38.9,8.46,29.43,3,63,11.87,78.43,20.34,14.27,7.83,20.72,15.4,24.13,28.16,1,3.92,2.65,9.85,3.66,13.39,1.77,6.44,9,41.68,12.63,61.26,7.07,39.28,14.4,65.8,26.4,96.62,11.49,29.3,13.26,38.52,13.26,65.8-.13,11.75-.63,27-1.26,34-1.65,18.94.63,46.1,5.17,62.52,3.29,11.62,10.11,29.81,12.51,33.47.5.63,3,5.18,5.68,10.1,11.5,21.22,36,53.68,40.67,53.68,2.4,0,2-1.64-4-18.31-2.4-6.95-5.94-16.67-7.58-21.47C317,629.27,307.57,602.5,303,590.75c-8.46-21.85-11.37-32.71-11.37-41.93.13-35.11,29.43-89.17,84.12-155.1,14.15-17.05,19.2-21.47,24.51-21.47,4.16,0,11.11,4.67,13.26,8.84,3.91,7.58,1.89,12.25-11.75,27.91C373.5,441.46,337.12,496.15,329,518.63c-7.2,20-7.33,20.21-6.82,30.06.38,6.32,1.52,12.38,3.41,16.8a113.86,113.86,0,0,1,3.92,10.74c.63,2,2.27,6.94,3.78,10.73,3.16,8.09,12.76,34.61,17.06,47.37,1.64,4.8,5.05,14.52,7.57,21.47s5.94,16.54,7.58,21.47c3.16,9.22,11,32.08,28.42,82.73,10.36,29.93,13.14,39.66,16.93,59.36,1.13,5.94,2.77,13.26,3.41,16.42s1.89,9.09,2.4,13.26,2.27,14.15,3.66,22.1c3,17.31,6.82,43.71,9.47,66.31,5.56,46.48,6.19,55.83,6.19,95.36,0,35.11-.25,41.56-2.65,55.07-5.31,29.68-12.63,44.71-24.88,51.28-3.54,1.89-6.07,2.9-18.07,7.33-4.92,1.89-19.07,12.25-27.91,20.58-14,13.14-9.09,15,39,15.29,36.75.12,42.31-.64,51.66-7.71,5.68-4.29,7.07-5.94,10.35-13,2.4-4.92,2.78-7.83,2.78-21.47-.12-10.23-.76-18.44-2.14-23.49-3.92-15-1.77-22.61,10-35.24l7.08-7.58-.64-15.79c-3-68.2-3.53-90.81-2.9-137.67.76-53,2.53-80.83,6.57-102.93,2.27-12.26,5.43-23.24,7.07-25.27a4.54,4.54,0,0,0,1.14-2.77c0-.89,2.52-5.06,5.55-9.22a101.36,101.36,0,0,0,15.29-31c1.13-4.17,2.9-10.1,3.91-13.26,6.19-20.71,12.25-56.58,16.42-98.52,1-9.85,2-12,7.2-15.15a14.16,14.16,0,0,1,14.78-.63c8.21,4.29,8.84,8.71,5.68,37.51-5,45.72-11.87,77.93-23.11,108.87-3,8.34-3,8.84-.89,10.36,1.27.88,4.8,2,8.09,2.4s12.12,1.64,19.7,2.78c20.84,3.15,105,3.15,126.3,0,28.68-4.3,39.16-6.19,56.84-10,15.28-3.29,22.61-5,44.21-11.12,4.92-1.39,17.43-5.68,26.52-9.22,4.3-1.77,50.9-18.56,61.89-22.48,22.48-7.83,59.24-16,85-18.82,13.64-1.51,48.12-1.13,53.93.51a5.56,5.56,0,0,0,4.3-.38c1.51-.89,1-2.65-2.4-9.85-13.26-27.66-16.93-35.75-24.38-53.43C984.93,619.3,982.15,612,975.59,592c-3.29-10.1-7.58-23.11-9.6-29s-3.66-12.5-3.66-14.52c.12-7.07,7.45-13.26,16-13.26,4.16,0,6.06.76,9.09,3.91,2.15,2.15,4.29,5.43,4.67,7.2,1.52,6.06,15.79,48.63,19.71,58.35,16.67,41.81,18.31,45.6,36.5,82.73,15.66,31.83,19.57,39.16,36.37,66.82,17,28.16,19.83,32.2,37.26,55.57,31,41.43,65.68,75.66,101.3,100,10.1,6.82,44,27,45.34,27,1,0,21.09,12.51,32.21,20.21,15.28,10.48,37.26,32.08,43.45,42.82,10.48,18.06,14.65,39.78,14.65,75.15,0,24.12-2.4,50.14-5.05,55.19-5.06,9.47-12.89,14.91-21.6,15-9.73,0-21.85,4.42-26.27,9.48-3.67,4.29-5.81,10.73-4.93,15.28.63,3.66,7.83,7.7,18.31,10.1,18.19,4.3,60.88,2.15,68-3.53,3.78-2.91,3.91-4.93,1.39-29-4.55-43-3.67-100.16,2-129.72,6.56-34.35,5.81-45.47-4.3-60.37-3.16-4.67-17-16.8-19.32-16.8-2.66,0-23.87-15.66-31.58-23.37-21.09-20.84-32.08-40.79-41.68-75.78-6.82-24.75-6.82-60.12,0-84.62,3.41-12.38,7.83-35,11-56.84,2.53-18.06,2.15-71.23-.63-88.41-3.92-23.24-7.71-35.74-16.29-54.69-1.9-4.29-3.54-8.08-3.54-8.46,0-1.26-10.61-17.81-16.17-25.39-3.28-4.29-9.34-12.75-13.51-18.82-32.34-47.11-74.65-78.81-127.57-95.73-21.85-6.95-26.78-8.21-37.64-9.73-4.8-.63-9.09-1.52-9.72-1.89-2.4-1.52-50.15-4.43-61.13-3.79-6.32.25-17.18.88-24.13,1.26-11.74.63-21.22,1.77-54.94,6.31-29.43,3.92-51.91,5.06-104.83,5.06-35.11,0-59-.51-68.84-1.65C716.79,398.77,698.6,396,664,388.54c-6.07-1.26-11.88-2-12.89-1.64-1.39.5-1.89,5.05-2.27,20.46-.63,21.09-1.52,25.13-6.82,29.93-6.57,6.06-19.7,2.91-23.24-5.55-1.26-3.16-1.26-5.81-.13-12.76,2.78-17.43.64-34.74-6.44-49-4.8-9.72-17.43-23.74-25.64-28.54-12.88-7.58-39.15-1.9-80.2,17.3-4.55,2.15-11.75,6.06-16.17,8.72-6.31,3.79-9.09,4.8-14,4.8-5.43,0-6.56-.51-10.1-4.42-3.16-3.67-3.92-5.69-3.92-10.36,0-4.93.64-6.32,4.17-9.73,4.68-4.42,28.29-16.92,45.72-24.25a109.53,109.53,0,0,0,12.51-5.68c.76-.63-3.66-5.94-10.36-12.76-17.3-17.43-29.43-35.61-37.38-56-1.9-4.93-4.3-10.61-5.18-12.63s-3.54-8.34-5.81-13.89c-9.1-22.11-22.23-45.22-39.91-70.61-6.83-9.85-31.71-41.3-33.6-42.69-2.15-1.26-4.67.38-6.82,4.42-2.78,5.43-13.52,16.68-30.31,31.45-7.84,6.82-21,20.34-29.31,29.81-17.68,20.59-25.51,27.91-36,33.6s-18.19,7.58-27.28,6.69c-16.17-1.39-28.93-12.25-35.37-30.06-5.94-16.17-7.58-26.78-7.58-50.14,0-24.38.51-26.78,9.47-53.18,6.7-19.45,9.6-34.73,9.73-49.76,0-11.87-.25-13.39-3.66-19.83-3.67-6.69-3.92-6.94-9.35-7.2A41.51,41.51,0,0,0,215.87,6.09ZM186.82,56.87a21.28,21.28,0,0,1,5.94,5.81c9.22,13.76-7.58,30.44-21.85,21.72-4.17-2.53-8.08-9.35-8.08-14,0-4,4.67-11.11,8.58-13.26C175.58,54.85,182.66,54.72,186.82,56.87Z"/><path d="M.4,107.64c-1.26,3.16.63,8,3.41,8.84,4.42,1.52,8.08-5.81,4.67-9.22C6.34,105.11,1.28,105.37.4,107.64Z"/><path d="M1259.14,460c0,.38,2.4,3.66,5.43,7.32s8.21,10.61,11.62,15.54,9.85,13.76,14.4,20.08c10.35,14,11.62,15.91,17.81,27.79,14.14,26.9,21.85,51.53,25.89,83.61,1.14,9,2.78,16.17,4.55,19.58,6.06,12,19.82,30.94,30.06,41.3,9.59,9.6,25.26,22.86,27.15,22.86a40.88,40.88,0,0,1,6.06,3.66c18.06,12.13,46.1,21.73,81.85,27.91,11.11,2,50.39,3.16,51.91,1.65.76-.76-1.77-4.05-7.33-9.22-36.63-34.11-85.25-97.26-124-161-7.2-11.87-15.53-24.63-18.44-28.42-24.5-31.83-64-56.71-113.16-71.23C1266.08,459.4,1259.14,458.76,1259.14,460Z"/><path d="M985.44,740.67c-1.64.26-2.91,1.27-2.91,2.28,0,4,29.69,49.63,46.1,70.85,38.65,50,75.66,83.24,125.68,112.92,1,.63,9,4.8,17.68,9.22,41.93,21.47,57.34,30.56,73.25,43.07,8.34,6.56,22.49,22.48,25.64,28.79,1.9,3.79,4.8,12.63,6.32,19.46,2.4,10.86,2.78,16.16,2.78,40.92-.13,29-2.78,56.33-6.06,62.26-4.93,9-13.9,14.78-22.61,14.78-7.45,0-21.85,4.3-27.92,8.21a21.64,21.64,0,0,0-7.45,9.22c-2.27,5-2.4,6.57-1.13,12.13.75,3.41,2,6.94,2.77,8,1.65,1.9,16.42,2.15,40,.76l14.4-.76-.88-8.58c-2.78-28,14.9-50.65,44.46-56.71,4.42-.89,8.84-2.28,9.85-3,2.65-1.89,4.92-32.08,3.91-50.64-1.39-24.89-4.54-38-12-49.89-9.6-15.54-38.27-38-69-54.19-5.56-2.9-11.74-6.44-13.89-7.7a53.8,53.8,0,0,0-6.7-3.79c-6.06-2.65-36.75-24.25-49.51-34.86-16-13.52-42.31-39.53-57.09-56.71-14.27-16.8-49-63.4-49-65.8,0-.51-1.52-2.91-3.41-5.44-4-5.3-4.93-6.56-11.62-18.56-7.71-13.64-18.06-20.08-38.65-23.87C1008.68,741.18,989.73,739.92,985.44,740.67Z"/><path d="M518.37,808.5c-2.65,1.89-5.18,13.51-7.71,34-3,24.25-3.91,130.35-1.64,181.5,2.53,55.45,2.53,57.6-1.64,64.42a66.12,66.12,0,0,1-9.09,11.24c-6.44,6.06-6.57,6.82-3.92,15.78,2.91,9.73,2.53,40.8-.63,50.9a55.63,55.63,0,0,1-3.92,10.24,5.72,5.72,0,0,0-.63,4.67c.76,2,2.15,2.15,13.77,1.51,14.65-.75,22.36-3,29.05-8.58,10.1-8.34,13.51-23.5,10.23-46.23-4.17-29.43-3.66-33,7-44.59,9.34-10.1,9-7.83,7.7-37.26-2.9-67.95-4-110.38-3.28-130.72,1.26-34.48,3.16-63.53,5.43-82.48,1.51-12.5,1.64-17.8.76-18.69s-6.07-1.89-11.62-2.4-11.37-1.39-12.76-1.89C529.1,807.87,520.14,807.11,518.37,808.5Z"/></svg>