<?xml version="1.0" encoding="utf-8"?>
<!-- Generator: Adobe Illustrator 24.1.0, SVG Export Plug-In . SVG Version: 6.00 Build 0)  -->
<svg version="1.1" id="Слой_1" xmlns="http://www.w3.org/2000/svg" xmlns:xlink="http://www.w3.org/1999/xlink" x="0px" y="0px"
	 viewBox="0 0 600 600" style="enable-background:new 0 0 600 600;" xml:space="preserve">
<g>
	<path d="M233.5,242.05c23.09,12.38,46.19-26.53,47.08-54.82c0.89-28.3-19.54-59.25-32.86-73.39c-13.32-14.15-34.64-6.19-39.08,0.88
		c0,0-6.15,4.98-10.36,18.2c-2.19,6.88-3.85,15.98-3.85,27.78c0,10.05,1.36,20.09,3.85,29.59
		C204.33,213.4,217.13,233.28,233.5,242.05z"/>
	<path d="M329.43,249.13c19.41,5.44,38.41-18.42,49.93-42.82c5.34-11.32,9.07-22.76,10.48-31.45c2.45-15.14-0.24-37.82-10.48-50.78
		c-8.3-10.51-21.55-14.64-41.04-3.16c0,0-31.98,20.34-36.42,51.29C297.45,203.15,301,241.17,329.43,249.13z"/>
	<path d="M408.48,238.52c0,0-17.25,12.27-29.13,30.13c-5.59,8.41-9.99,18.04-10.84,28.23c-1.69,20.18,1.62,36.1,10.84,45.05
		c5.32,5.16,12.6,8,22.02,8c25.76,0,58.63-37.14,58.63-71.62C460,243.82,441.35,217.29,408.48,238.52z"/>
	<path d="M198.27,310.62c4.2-8.05,4.93-19.73,2.37-36.74c-0.54-3.59-1.35-7.05-2.37-10.38c-8.96-29.42-34.05-47.98-34.05-47.98
		c-51.52-22.99-58.63,38.02-47.97,64.55c10.66,26.53,31.09,50.4,55.96,45.98C185.12,323.76,193.73,319.32,198.27,310.62z"/>
	<path d="M379.35,377.62c-17.34-36.01-47.27-69.85-60.58-81.63c-15.99-14.15-44.41-19.45-57.74-3.54c0,0-35.47,26.02-62.77,59.2
		c-10.36,12.59-19.55,26.22-25.17,39.84c-17.5,42.41,2.8,62.77,25.17,64.4c3.75,0.27,7.55,0.02,11.25-0.74
		c25.76-5.31,65.73-30.95,108.37-14.15c24.31,9.58,48.03,8.8,61.47-1.66c10.13-7.89,14.43-21.28,8.7-39.9
		C385.82,392.19,382.84,384.86,379.35,377.62z"/>
</g>
</svg>
