<svg width="29" height="36" viewBox="0 0 29 36" fill="none" xmlns="http://www.w3.org/2000/svg">
<path d="M13.0787 34.964C2.15302 20.6127 0.125 19.1398 0.125 13.8654C0.125 6.64077 6.58886 0.784058 14.5625 0.784058C22.5361 0.784058 29 6.64077 29 13.8654C29 19.1398 26.972 20.6127 16.0463 34.964C15.3293 35.9024 13.7957 35.9023 13.0787 34.964ZM14.5625 19.316C17.8849 19.316 20.5781 16.8757 20.5781 13.8654C20.5781 10.8552 17.8849 8.41487 14.5625 8.41487C11.2401 8.41487 8.54688 10.8552 8.54688 13.8654C8.54688 16.8757 11.2401 19.316 14.5625 19.316Z" fill="#FFFFF4"/>
</svg>
