<svg width="29" height="36" viewBox="0 0 29 36" fill="none" xmlns="http://www.w3.org/2000/svg">
<path d="M14.5625 0.601318C6.58351 0.601318 0.125 8.40226 0.125 18.0432C0.125 27.6825 6.58223 35.485 14.5625 35.485C17.3658 35.485 20.1129 34.4906 22.4454 32.6562C23.1443 32.1065 23.2968 30.948 22.7686 30.1684L22.1761 29.294C21.7296 28.635 20.9432 28.4735 20.3497 28.9333C18.6329 30.2635 16.6183 30.9839 14.5625 30.9839C8.65605 30.9839 3.85081 25.1787 3.85081 18.0432C3.85081 10.9076 8.65605 5.10244 14.5625 5.10244C20.3922 5.10244 25.2742 9.15479 25.2742 16.3553C25.2742 19.0831 24.0462 21.9635 21.8878 22.2414C20.8778 22.2095 20.9034 21.3372 21.1033 20.1298L22.4674 11.6121C22.6343 10.5706 21.9738 9.60357 21.0958 9.60357H18.4772C18.2838 9.60356 18.0972 9.68955 17.953 9.84511C17.8088 10.0007 17.717 10.2149 17.6952 10.447L17.6946 10.4535C16.839 9.19453 15.3399 8.92207 14.2034 8.92207C9.86164 8.92207 6.17944 13.299 6.17944 19.5743C6.17944 24.167 8.3209 27.0201 11.7681 27.0201C13.339 27.0201 15.1079 25.9204 16.1338 24.3241C16.6881 26.7227 18.4981 26.7226 20.2502 26.7226C26.5904 26.7226 29 21.6861 29 16.3553C29 6.76596 22.5976 0.601318 14.5625 0.601318ZM13.3004 22.0119C12.0051 22.0119 11.2005 20.9131 11.2005 19.1445C11.2005 15.9801 12.9924 14.0294 14.6137 14.0294C15.9115 14.0294 16.6863 15.1013 16.6863 16.8968C16.6863 20.0659 14.7142 22.0119 13.3004 22.0119Z" fill="#FFFFF4"/>
</svg>
