<svg width="51" height="51" viewBox="0 0 51 51" fill="none" xmlns="http://www.w3.org/2000/svg">
<path d="M44.9278 0.602661H5.64205C4.22125 0.602661 2.85864 1.16707 1.85398 2.17173C0.849324 3.17639 0.284912 4.539 0.284912 5.9598L0.284912 45.2455C0.284912 46.6663 0.849324 48.0289 1.85398 49.0336C2.85864 50.0383 4.22125 50.6027 5.64205 50.6027H20.9601V33.6038H13.9289V25.6027H20.9601V19.5044C20.9601 12.5681 25.0896 8.73659 31.4144 8.73659C34.4434 8.73659 37.6108 9.27677 37.6108 9.27677V16.0848H34.1208C30.6822 16.0848 29.6097 18.2187 29.6097 20.4073V25.6027H37.286L36.0583 33.6038H29.6097V50.6027H44.9278C46.3486 50.6027 47.7112 50.0383 48.7158 49.0336C49.7205 48.0289 50.2849 46.6663 50.2849 45.2455V5.9598C50.2849 4.539 49.7205 3.17639 48.7158 2.17173C47.7112 1.16707 46.3486 0.602661 44.9278 0.602661Z" fill="#FFFFF4"/>
</svg>
