<svg width="51" height="51" viewBox="0 0 51 51" fill="none" xmlns="http://www.w3.org/2000/svg">
<path d="M25.2074 12.2834C32.3003 12.4252 38.0064 18.2631 37.988 25.3589C37.9695 32.4547 32.2334 38.0639 25.1406 37.9221C18.0478 37.7803 12.3416 31.9424 12.3601 24.8466C12.3786 17.7507 18.1146 12.1416 25.2074 12.2834ZM25.1523 33.437C29.7359 33.5286 33.4928 29.866 33.5047 25.2693C33.5167 20.6726 29.7905 16.8604 25.1957 16.7685C20.601 16.6766 16.8552 20.3395 16.8433 24.9362C16.8313 29.5328 20.5687 33.3453 25.1523 33.437ZM8.88188 11.4326C8.87754 13.095 10.2124 14.4494 11.8629 14.4824C13.5246 14.5157 14.8552 13.2034 14.8595 11.5521C14.8638 9.9009 13.529 8.53531 11.8785 8.50231C10.2279 8.46931 8.88618 9.78139 8.88188 11.4326ZM0.387097 14.2976C0.587123 10.2961 1.51086 6.76645 4.45152 3.90197C7.38103 1.03727 10.9298 0.193305 14.934 0.0725249C19.061 -0.079273 31.4288 0.167997 35.5545 0.484791C39.5466 0.754281 43.0906 1.74005 46.016 4.72181C48.9414 7.70357 49.8355 11.2695 50.0258 15.2789C50.2493 19.4116 50.217 31.7847 49.9721 35.9081C49.772 39.9096 48.8483 43.4393 45.9076 46.3037C42.967 49.1682 39.4293 50.0124 35.4251 50.1332C31.2982 50.285 18.9303 50.0377 14.8046 49.7209C10.8014 49.4512 7.25741 48.4654 4.34317 45.4727C1.42889 42.4912 0.523655 38.925 0.333356 34.9156C0.109917 30.7829 0.142138 18.421 0.387097 14.2976ZM5.65259 39.4515C6.51677 41.6557 8.19636 43.3741 10.3911 44.2994C13.6776 45.6705 21.4849 45.5254 25.1206 45.598C28.7562 45.6707 36.5732 46.1171 39.8553 44.8885C42.0434 44.0619 43.7318 42.4109 44.6186 40.2306C45.932 36.9654 45.6512 29.1495 45.6607 25.5123C45.6702 21.8752 45.9805 14.0599 44.6954 10.7539C43.8312 8.54979 42.1516 6.83143 39.9569 5.9061C36.6704 4.53497 28.8631 4.68013 25.2274 4.60744C21.5918 4.53475 13.7748 4.08837 10.4927 5.31702C8.30456 6.14356 6.61618 7.79459 5.72942 9.9749C4.41603 13.2401 4.69678 21.056 4.6873 24.6932C4.67782 28.3303 4.35633 36.1453 5.65259 39.4515Z" fill="#FFFFF4"/>
</svg>
