<svg width="29" height="36" viewBox="0 0 29 36" fill="none" xmlns="http://www.w3.org/2000/svg">
<path d="M28.1765 25.0687L21.86 21.7982C21.5902 21.6593 21.2903 21.63 21.0055 21.7148C20.7207 21.7996 20.4664 21.9939 20.2809 22.2684L17.4836 26.3973C13.0935 23.8966 9.56041 19.6284 7.49051 14.3247L10.9082 10.9453C11.1359 10.7216 11.297 10.4143 11.3672 10.0701C11.4374 9.7259 11.4129 9.36341 11.2973 9.03753L8.59026 1.40658C8.46343 1.05529 8.23911 0.768471 7.95599 0.595584C7.67286 0.422698 7.34868 0.374578 7.03933 0.459523L1.17399 2.09473C0.875746 2.17793 0.609649 2.3808 0.419133 2.67024C0.228616 2.95967 0.124931 3.31858 0.125 3.68837C0.125 21.1646 11.85 35.3023 26.2934 35.3023C26.5996 35.3025 26.8968 35.1773 27.1365 34.9472C27.3762 34.717 27.5442 34.3954 27.6131 34.035L28.9667 26.9491C29.0365 26.5736 28.9958 26.1804 28.8516 25.8372C28.7074 25.4939 28.4687 25.2222 28.1765 25.0687Z" fill="#FFFFF4"/>
</svg>
