<svg width="51" height="51" viewBox="0 0 51 51" fill="none" xmlns="http://www.w3.org/2000/svg">
<path d="M25.4204 0.602661C11.6099 0.602661 0.42041 11.7922 0.42041 25.6027C0.42041 39.4131 11.6099 50.6027 25.4204 50.6027C39.2309 50.6027 50.4204 39.4131 50.4204 25.6027C50.4204 11.7922 39.2309 0.602661 25.4204 0.602661ZM37.6986 17.7297L33.5958 37.0644C33.2934 38.4353 32.4769 38.768 31.3378 38.1228L25.0878 33.516L22.0736 36.4192C21.741 36.7519 21.4587 37.0341 20.8136 37.0341L21.2571 30.6732L32.8398 20.2095C33.3438 19.766 32.7289 19.514 32.0636 19.9575L17.749 28.9696L11.5797 27.0442C10.239 26.6208 10.2087 25.7035 11.8619 25.0583L35.9648 15.764C37.0837 15.3607 38.0615 16.0361 37.6986 17.7297Z" fill="#FFFFF4"/>
</svg>
