<svg width="51" height="51" viewBox="0 0 51 51" fill="none" xmlns="http://www.w3.org/2000/svg">
<path d="M45.5273 0.152649H6.24154C3.28395 0.152649 0.884399 2.5522 0.884399 5.50979V44.7955C0.884399 47.7531 3.28395 50.1526 6.24154 50.1526H45.5273C48.4848 50.1526 50.8844 47.7531 50.8844 44.7955V5.50979C50.8844 2.5522 48.4848 0.152649 45.5273 0.152649ZM40.0697 17.8759C40.092 18.1884 40.092 18.512 40.092 18.8245C40.092 28.5009 32.7259 39.6504 19.2661 39.6504C15.1143 39.6504 11.2639 38.4451 8.02726 36.3692C8.61877 36.4361 9.18797 36.4585 9.79065 36.4585C13.217 36.4585 16.3643 35.2977 18.8755 33.3335C15.6612 33.2665 12.9603 31.1571 12.034 28.2553C13.1612 28.4227 14.1768 28.4227 15.3375 28.1214C11.9893 27.4406 9.47815 24.4942 9.47815 20.9339V20.8446C10.4491 21.3915 11.5875 21.7263 12.7817 21.771C11.7777 21.1031 10.9547 20.1971 10.386 19.1338C9.81739 18.0705 9.52082 16.883 9.52279 15.6772C9.52279 14.3156 9.87994 13.0656 10.5161 11.983C14.121 16.425 19.534 19.3268 25.6054 19.6393C24.5674 14.6727 28.284 10.6437 32.7482 10.6437C34.8576 10.6437 36.7549 11.5254 38.0942 12.954C39.746 12.6415 41.3308 12.0276 42.7371 11.1906C42.1902 12.887 41.0406 14.3156 39.5228 15.2196C40.996 15.0634 42.4246 14.6504 43.7415 14.0812C42.7482 15.5433 41.4982 16.8379 40.0697 17.8759Z" fill="#FFFFF4"/>
</svg>
